<mxfile host="app.diagrams.net" modified="2024-05-13T18:23:58.612Z" agent="Mozilla/5.0 (Windows NT 10.0; Win64; x64) AppleWebKit/537.36 (KHTML, like Gecko) Chrome/124.0.0.0 Safari/537.36" etag="c9Mge8JHOkOZoN7G-nRD" version="24.4.0" type="google">
  <diagram name="Página-1" id="r_cKIaBQM7Z5VWGfyb1r">
    <mxGraphModel grid="0" page="0" gridSize="10" guides="1" tooltips="1" connect="1" arrows="1" fold="1" pageScale="1" pageWidth="850" pageHeight="1100" math="0" shadow="0">
      <root>
        <mxCell id="0" />
        <mxCell id="1" parent="0" />
        <mxCell id="g295rd1gM76-QlpaN-fI-1" value="&lt;font style=&quot;font-size: 10px;&quot;&gt;todos os dados&amp;nbsp;&lt;/font&gt;&lt;span style=&quot;font-size: 10px; background-color: initial;&quot;&gt;fornecidos&lt;/span&gt;" style="html=1;blockSpacing=1;whiteSpace=wrap;shape=mxgraph.sysml.package2;xSize=90;overflow=fill;fontSize=13;align=left;spacing=0;strokeOpacity=100;fillOpacity=100;rounded=1;absoluteArcSize=1;arcSize=12;strokeWidth=0.8;lucidId=CD4A~8GAiUdQ;labelX=152.95;" vertex="1" parent="1">
          <mxGeometry x="1175" y="-278" width="310" height="101" as="geometry" />
        </mxCell>
        <mxCell id="g295rd1gM76-QlpaN-fI-3" value="" style="html=1;jettySize=18;whiteSpace=wrap;fontSize=13;strokeColor=#333333;strokeOpacity=100;dashed=1;fixDash=1;strokeWidth=0.8;rounded=0;startArrow=none;endArrow=none;exitX=0.5;exitY=1.005;exitPerimeter=0;entryX=0.5;entryY=-0.005;entryPerimeter=0;lucidId=xv4Ab7Zhqv3U;" edge="1" parent="1">
          <mxGeometry width="100" height="100" relative="1" as="geometry">
            <Array as="points" />
            <mxPoint x="393" y="-71.75500000000011" as="sourcePoint" />
            <mxPoint x="393" y="-61.375" as="targetPoint" />
          </mxGeometry>
        </mxCell>
        <mxCell id="g295rd1gM76-QlpaN-fI-4" value="" style="html=1;jettySize=18;whiteSpace=wrap;fontSize=13;strokeColor=#333333;strokeOpacity=100;dashed=1;fixDash=1;strokeWidth=0.8;rounded=0;startArrow=none;endArrow=none;exitX=0.5;exitY=1.005;exitPerimeter=0;entryX=0.5;entryY=-0.005;entryPerimeter=0;lucidId=xv4AgYsArNUs;" edge="1" parent="1" source="g295rd1gM76-QlpaN-fI-11">
          <mxGeometry width="100" height="100" relative="1" as="geometry">
            <Array as="points" />
            <mxPoint x="579.5" y="-61.374999999999545" as="targetPoint" />
          </mxGeometry>
        </mxCell>
        <mxCell id="g295rd1gM76-QlpaN-fI-5" value="" style="html=1;jettySize=18;whiteSpace=wrap;fontSize=13;strokeColor=#333333;strokeOpacity=100;dashed=1;fixDash=1;strokeWidth=0.8;rounded=0;startArrow=none;endArrow=none;exitX=0.5;exitY=1.005;exitPerimeter=0;entryX=0.5;entryY=-0.005;entryPerimeter=0;lucidId=xv4A3fMg__mF;" edge="1" parent="1" source="g295rd1gM76-QlpaN-fI-63">
          <mxGeometry width="100" height="100" relative="1" as="geometry">
            <Array as="points" />
            <mxPoint x="837" y="-61.374999999999545" as="targetPoint" />
          </mxGeometry>
        </mxCell>
        <mxCell id="g295rd1gM76-QlpaN-fI-6" value="" style="html=1;jettySize=18;whiteSpace=wrap;fontSize=13;strokeColor=#333333;strokeOpacity=100;dashed=1;fixDash=1;strokeWidth=0.8;rounded=0;startArrow=none;endArrow=none;exitX=0.5;exitY=1.005;exitPerimeter=0;entryX=0.5;entryY=-0.005;entryPerimeter=0;lucidId=xv4A1PRK3oP_;" edge="1" parent="1" source="g295rd1gM76-QlpaN-fI-23">
          <mxGeometry width="100" height="100" relative="1" as="geometry">
            <Array as="points" />
            <mxPoint x="1138.5" y="-61.374999999999545" as="targetPoint" />
          </mxGeometry>
        </mxCell>
        <mxCell id="g295rd1gM76-QlpaN-fI-7" value="" style="html=1;jettySize=18;whiteSpace=wrap;fontSize=13;strokeColor=#333333;strokeOpacity=100;dashed=1;fixDash=1;strokeWidth=0.8;rounded=0;startArrow=none;endArrow=none;exitX=0.5;exitY=1.005;exitPerimeter=0;entryX=0.5;entryY=-0.005;entryPerimeter=0;lucidId=xv4A34kNguCD;" edge="1" parent="1" source="g295rd1gM76-QlpaN-fI-17">
          <mxGeometry width="100" height="100" relative="1" as="geometry">
            <Array as="points" />
            <mxPoint x="1393.5" y="-61.374999999999545" as="targetPoint" />
          </mxGeometry>
        </mxCell>
        <mxCell id="g295rd1gM76-QlpaN-fI-8" value="" style="html=1;jettySize=18;whiteSpace=wrap;fontSize=13;strokeColor=#333333;strokeOpacity=100;dashed=1;fixDash=1;strokeWidth=0.8;rounded=0;startArrow=none;endArrow=none;exitX=0.5;exitY=1.005;exitPerimeter=0;entryX=0.5;entryY=-0.005;entryPerimeter=0;lucidId=xv4AXZy5Lg_T;" edge="1" parent="1" source="g295rd1gM76-QlpaN-fI-19">
          <mxGeometry width="100" height="100" relative="1" as="geometry">
            <Array as="points" />
            <mxPoint x="1649.5" y="-61.374999999999545" as="targetPoint" />
          </mxGeometry>
        </mxCell>
        <mxCell id="g295rd1gM76-QlpaN-fI-9" value="" style="html=1;jettySize=18;whiteSpace=wrap;fontSize=13;strokeColor=#333333;strokeOpacity=100;dashed=1;fixDash=1;strokeWidth=0.8;rounded=0;startArrow=none;endArrow=none;exitX=0.5;exitY=1.005;exitPerimeter=0;entryX=0.5;entryY=-0.005;entryPerimeter=0;lucidId=xv4AK_0za30H;" edge="1" parent="1">
          <mxGeometry width="100" height="100" relative="1" as="geometry">
            <Array as="points" />
            <mxPoint x="1898.5" y="-450.625" as="sourcePoint" />
            <mxPoint x="1898.5" y="-61.374999999999545" as="targetPoint" />
          </mxGeometry>
        </mxCell>
        <mxCell id="g295rd1gM76-QlpaN-fI-11" value="Tela Principal" style="html=1;overflow=block;blockSpacing=1;whiteSpace=wrap;fontSize=13;spacing=3.8;rounded=1;absoluteArcSize=1;arcSize=12;strokeWidth=NaN;lucidId=xv4ABiWCy.lM;" vertex="1" parent="1">
          <mxGeometry x="528" y="-526" width="103" height="75" as="geometry" />
        </mxCell>
        <mxCell id="g295rd1gM76-QlpaN-fI-13" value="Pesquisa-Fornecedores-ADM" style="html=1;overflow=block;blockSpacing=1;whiteSpace=wrap;fontSize=13;spacing=3.8;rounded=1;absoluteArcSize=1;arcSize=12;strokeWidth=NaN;lucidId=xv4AnDAn6qlw;" vertex="1" parent="1">
          <mxGeometry x="721" y="-526" width="232" height="75" as="geometry" />
        </mxCell>
        <mxCell id="g295rd1gM76-QlpaN-fI-15" value="Botão Adicionar Fornecedor" style="html=1;overflow=block;blockSpacing=1;whiteSpace=wrap;fontSize=13;spacing=3.8;rounded=1;absoluteArcSize=1;arcSize=12;strokeWidth=NaN;lucidId=xv4AG3_Hx9sq;" vertex="1" parent="1">
          <mxGeometry x="1043" y="-526" width="191" height="75" as="geometry" />
        </mxCell>
        <mxCell id="g295rd1gM76-QlpaN-fI-17" value="Formulário Registro Fornecedor" style="html=1;overflow=block;blockSpacing=1;whiteSpace=wrap;fontSize=13;spacing=3.8;rounded=1;absoluteArcSize=1;arcSize=12;strokeWidth=NaN;lucidId=xv4ApN2Sy4Oh;" vertex="1" parent="1">
          <mxGeometry x="1324" y="-526" width="139" height="75" as="geometry" />
        </mxCell>
        <mxCell id="g295rd1gM76-QlpaN-fI-19" value="Confirmação de Salvamento" style="html=1;overflow=block;blockSpacing=1;whiteSpace=wrap;fontSize=13;spacing=3.8;rounded=1;absoluteArcSize=1;arcSize=12;strokeWidth=NaN;lucidId=xv4AFguTSSNR;" vertex="1" parent="1">
          <mxGeometry x="1553" y="-526" width="193" height="75" as="geometry" />
        </mxCell>
        <mxCell id="g295rd1gM76-QlpaN-fI-24" value="" style="html=1;overflow=block;blockSpacing=1;whiteSpace=wrap;fontSize=13;spacing=0;rounded=1;absoluteArcSize=1;arcSize=12;strokeWidth=NaN;lucidId=xv4AvyRrt-3T;" vertex="1" parent="1">
          <mxGeometry x="1379" y="-356" width="30" height="216" as="geometry" />
        </mxCell>
        <mxCell id="g295rd1gM76-QlpaN-fI-25" value="" style="html=1;overflow=block;blockSpacing=1;whiteSpace=wrap;fontSize=13;spacing=0;rounded=1;absoluteArcSize=1;arcSize=12;strokeWidth=NaN;lucidId=xv4AK54xew70;" vertex="1" parent="1">
          <mxGeometry x="1635" y="-226" width="30" height="135" as="geometry" />
        </mxCell>
        <mxCell id="g295rd1gM76-QlpaN-fI-26" value="" style="html=1;overflow=block;blockSpacing=1;whiteSpace=wrap;fontSize=13;spacing=0;rounded=1;absoluteArcSize=1;arcSize=12;strokeWidth=NaN;lucidId=xv4ASUcmtkP5;" vertex="1" parent="1">
          <mxGeometry x="1883" y="-136" width="30" height="45" as="geometry" />
        </mxCell>
        <mxCell id="g295rd1gM76-QlpaN-fI-27" value="" style="html=1;jettySize=18;whiteSpace=wrap;fontSize=13;strokeColor=#333333;strokeOpacity=100;strokeWidth=0.8;rounded=0;startArrow=none;endArrow=block;endFill=1;lucidId=xv4Aw8FnWTWo;exitX=0.985;exitY=0.045;exitDx=0;exitDy=0;exitPerimeter=0;entryX=-0.02;entryY=0.202;entryDx=0;entryDy=0;entryPerimeter=0;" edge="1" parent="1" target="g295rd1gM76-QlpaN-fI-60">
          <mxGeometry width="100" height="100" relative="1" as="geometry">
            <Array as="points" />
            <mxPoint x="407.5500000000002" y="-406.7950000000001" as="sourcePoint" />
            <mxPoint x="580" y="-405" as="targetPoint" />
          </mxGeometry>
        </mxCell>
        <mxCell id="g295rd1gM76-QlpaN-fI-28" value="Acessa tela principal" style="text;html=1;resizable=0;labelBackgroundColor=default;align=center;verticalAlign=middle;fontStyle=1;fontColor=#333333;fontSize=10.8;" vertex="1" parent="g295rd1gM76-QlpaN-fI-27">
          <mxGeometry relative="1" as="geometry">
            <mxPoint as="offset" />
          </mxGeometry>
        </mxCell>
        <mxCell id="g295rd1gM76-QlpaN-fI-29" value="" style="html=1;jettySize=18;whiteSpace=wrap;fontSize=13;strokeColor=#333333;strokeOpacity=100;strokeWidth=0.8;rounded=0;startArrow=none;endArrow=block;endFill=1;lucidId=xv4Ao6n-tKGD;entryX=0;entryY=0.25;entryDx=0;entryDy=0;" edge="1" parent="1" target="g295rd1gM76-QlpaN-fI-63">
          <mxGeometry width="100" height="100" relative="1" as="geometry">
            <Array as="points" />
            <mxPoint x="580" y="-361" as="sourcePoint" />
            <mxPoint x="837" y="-361" as="targetPoint" />
          </mxGeometry>
        </mxCell>
        <mxCell id="g295rd1gM76-QlpaN-fI-30" value="Vai para tela de pesquisa" style="text;html=1;resizable=0;labelBackgroundColor=default;align=center;verticalAlign=middle;fontStyle=1;fontColor=#333333;fontSize=10.8;" vertex="1" parent="g295rd1gM76-QlpaN-fI-29">
          <mxGeometry relative="1" as="geometry">
            <mxPoint as="offset" />
          </mxGeometry>
        </mxCell>
        <mxCell id="g295rd1gM76-QlpaN-fI-31" value="" style="html=1;jettySize=18;whiteSpace=wrap;fontSize=13;strokeColor=#333333;strokeOpacity=100;strokeWidth=0.8;rounded=0;startArrow=none;endArrow=block;endFill=1;entryX=0;entryY=0.25;lucidId=xv4Awqq8j__u;exitX=1;exitY=0.75;exitDx=0;exitDy=0;entryDx=0;entryDy=0;" edge="1" parent="1" source="g295rd1gM76-QlpaN-fI-63" target="g295rd1gM76-QlpaN-fI-23">
          <mxGeometry width="100" height="100" relative="1" as="geometry">
            <Array as="points" />
            <mxPoint x="837" y="-316" as="sourcePoint" />
          </mxGeometry>
        </mxCell>
        <mxCell id="g295rd1gM76-QlpaN-fI-32" value="Clica em &quot;Adicionar Fornecedor&quot;" style="text;html=1;resizable=0;labelBackgroundColor=default;align=center;verticalAlign=middle;fontStyle=1;fontColor=#333333;fontSize=10.8;" vertex="1" parent="g295rd1gM76-QlpaN-fI-31">
          <mxGeometry relative="1" as="geometry">
            <mxPoint as="offset" />
          </mxGeometry>
        </mxCell>
        <mxCell id="g295rd1gM76-QlpaN-fI-33" value="" style="html=1;jettySize=18;whiteSpace=wrap;fontSize=13;strokeColor=#333333;strokeOpacity=100;strokeWidth=0.8;rounded=0;startArrow=none;endArrow=block;endFill=1;exitX=1;exitY=0.5;entryX=0;entryY=0.307;entryPerimeter=0;lucidId=xv4A-RO-86u7;exitDx=0;exitDy=0;entryDx=0;entryDy=0;" edge="1" parent="1" target="g295rd1gM76-QlpaN-fI-24">
          <mxGeometry width="100" height="100" relative="1" as="geometry">
            <Array as="points" />
            <mxPoint x="1153.36" y="-290.8" as="sourcePoint" />
            <mxPoint x="1378" y="-293.49999999999994" as="targetPoint" />
          </mxGeometry>
        </mxCell>
        <mxCell id="g295rd1gM76-QlpaN-fI-34" value="Abre formulário via planilha" style="text;html=1;resizable=0;labelBackgroundColor=default;align=center;verticalAlign=middle;fontStyle=1;fontColor=#333333;fontSize=10.8;" vertex="1" parent="g295rd1gM76-QlpaN-fI-33">
          <mxGeometry x="0.10264593621869555" relative="1" as="geometry">
            <mxPoint as="offset" />
          </mxGeometry>
        </mxCell>
        <mxCell id="g295rd1gM76-QlpaN-fI-35" value="" style="html=1;jettySize=18;whiteSpace=wrap;fontSize=13;strokeColor=#333333;strokeOpacity=100;strokeWidth=0.8;rounded=0;startArrow=none;endArrow=block;endFill=1;exitX=1.012;exitY=0.733;exitPerimeter=0;entryX=-0.012;entryY=0.228;entryPerimeter=0;lucidId=xv4Ag7YzSG4f;" edge="1" parent="1" source="g295rd1gM76-QlpaN-fI-24" target="g295rd1gM76-QlpaN-fI-25">
          <mxGeometry width="100" height="100" relative="1" as="geometry">
            <Array as="points" />
          </mxGeometry>
        </mxCell>
        <mxCell id="g295rd1gM76-QlpaN-fI-36" value="Pede confirmação para salvar" style="text;html=1;resizable=0;labelBackgroundColor=default;align=center;verticalAlign=middle;fontStyle=1;fontColor=#333333;fontSize=10.8;" vertex="1" parent="g295rd1gM76-QlpaN-fI-35">
          <mxGeometry relative="1" as="geometry">
            <mxPoint as="offset" />
          </mxGeometry>
        </mxCell>
        <mxCell id="g295rd1gM76-QlpaN-fI-37" value="" style="html=1;jettySize=18;whiteSpace=wrap;fontSize=13;strokeColor=#333333;strokeOpacity=100;strokeWidth=0.8;rounded=0;startArrow=none;endArrow=block;endFill=1;entryX=-0.012;entryY=0.482;entryPerimeter=0;lucidId=xv4AjDQ0dH6s;exitX=1;exitY=0.75;exitDx=0;exitDy=0;" edge="1" parent="1" target="g295rd1gM76-QlpaN-fI-25">
          <mxGeometry width="100" height="100" relative="1" as="geometry">
            <Array as="points" />
            <mxPoint x="408" y="-160.75" as="sourcePoint" />
          </mxGeometry>
        </mxCell>
        <mxCell id="g295rd1gM76-QlpaN-fI-38" value="Confirma salvamento" style="text;html=1;resizable=0;labelBackgroundColor=default;align=center;verticalAlign=middle;fontStyle=1;fontColor=#333333;fontSize=10.8;" vertex="1" parent="g295rd1gM76-QlpaN-fI-37">
          <mxGeometry x="0.06252916678114273" relative="1" as="geometry">
            <mxPoint as="offset" />
          </mxGeometry>
        </mxCell>
        <mxCell id="g295rd1gM76-QlpaN-fI-39" value="" style="html=1;jettySize=18;whiteSpace=wrap;fontSize=13;strokeColor=#333333;strokeOpacity=100;strokeWidth=0.8;rounded=0;startArrow=none;endArrow=block;endFill=1;exitX=1.012;exitY=0.671;exitPerimeter=0;entryX=0.04;entryY=0.04;entryPerimeter=0;lucidId=xv4AUQgMU1ME;" edge="1" parent="1" source="g295rd1gM76-QlpaN-fI-25" target="g295rd1gM76-QlpaN-fI-26">
          <mxGeometry width="100" height="100" relative="1" as="geometry">
            <Array as="points" />
          </mxGeometry>
        </mxCell>
        <mxCell id="g295rd1gM76-QlpaN-fI-40" value="Adiciona novos dados ao banco" style="text;html=1;resizable=0;labelBackgroundColor=default;align=center;verticalAlign=middle;fontStyle=1;fontColor=#333333;fontSize=10.8;" vertex="1" parent="g295rd1gM76-QlpaN-fI-39">
          <mxGeometry relative="1" as="geometry">
            <mxPoint as="offset" />
          </mxGeometry>
        </mxCell>
        <mxCell id="g295rd1gM76-QlpaN-fI-41" value="" style="html=1;jettySize=18;whiteSpace=wrap;fontSize=13;strokeColor=#333333;strokeOpacity=100;dashed=1;fixDash=1;strokeWidth=0.8;rounded=0;startArrow=none;endArrow=block;endFill=1;exitX=0.04;exitY=0.96;exitPerimeter=0;lucidId=xv4AtTEIP7Dh;" edge="1" parent="1">
          <mxGeometry width="100" height="100" relative="1" as="geometry">
            <Array as="points" />
            <mxPoint x="393" y="-91" as="targetPoint" />
            <mxPoint x="379.2000000000003" y="-87.45999999999958" as="sourcePoint" />
          </mxGeometry>
        </mxCell>
        <mxCell id="g295rd1gM76-QlpaN-fI-45" value="" style="html=1;overflow=block;blockSpacing=1;whiteSpace=wrap;fontSize=13;spacing=0;rounded=1;absoluteArcSize=1;arcSize=12;strokeWidth=NaN;lucidId=kI4Ahj55po2k;" vertex="1" parent="1">
          <mxGeometry x="1392" y="-271" width="30" height="31" as="geometry" />
        </mxCell>
        <mxCell id="g295rd1gM76-QlpaN-fI-46" value="" style="line;strokeWidth=1;fillColor=none;align=left;verticalAlign=middle;spacingTop=-1;spacingLeft=3;spacingRight=3;rotatable=0;labelPosition=right;points=[];portConstraint=eastwest;strokeColor=inherit;dashed=1;" vertex="1" parent="1">
          <mxGeometry x="1175" y="-235.5" width="312" height="8" as="geometry" />
        </mxCell>
        <mxCell id="g295rd1gM76-QlpaN-fI-48" value="&lt;span data-lucid-content=&quot;{&amp;quot;t&amp;quot;:&amp;quot;[Caso alguma informação falte]&amp;quot;,&amp;quot;m&amp;quot;:[{&amp;quot;s&amp;quot;:0,&amp;quot;n&amp;quot;:&amp;quot;a&amp;quot;,&amp;quot;v&amp;quot;:&amp;quot;center&amp;quot;},{&amp;quot;s&amp;quot;:0,&amp;quot;n&amp;quot;:&amp;quot;c&amp;quot;,&amp;quot;v&amp;quot;:&amp;quot;333333ff&amp;quot;,&amp;quot;e&amp;quot;:30},{&amp;quot;s&amp;quot;:0,&amp;quot;n&amp;quot;:&amp;quot;fsp&amp;quot;,&amp;quot;v&amp;quot;:&amp;quot;ss_presetShapeStyle1_textStyle&amp;quot;,&amp;quot;e&amp;quot;:30}]}&quot; data-lucid-type=&quot;application/vnd.lucid.text&quot;&gt;&lt;span style=&quot;color:#333333;&quot;&gt;&lt;font style=&quot;font-size: 12px;&quot;&gt;[Caso alguma informação falte]&lt;/font&gt;&lt;/span&gt;&lt;/span&gt;" style="text;html=1;align=center;verticalAlign=middle;resizable=0;points=[];autosize=1;strokeColor=none;fillColor=none;fontSize=16;" vertex="1" parent="1">
          <mxGeometry x="1183" y="-260" width="195" height="31" as="geometry" />
        </mxCell>
        <UserObject label="&lt;span data-lucid-type=&quot;application/vnd.lucid.text&quot; data-lucid-content=&quot;{&amp;quot;t&amp;quot;:&amp;quot;[Caso contrário]&amp;quot;,&amp;quot;m&amp;quot;:[{&amp;quot;s&amp;quot;:0,&amp;quot;n&amp;quot;:&amp;quot;a&amp;quot;,&amp;quot;v&amp;quot;:&amp;quot;center&amp;quot;},{&amp;quot;s&amp;quot;:0,&amp;quot;n&amp;quot;:&amp;quot;c&amp;quot;,&amp;quot;v&amp;quot;:&amp;quot;333333ff&amp;quot;,&amp;quot;e&amp;quot;:16},{&amp;quot;s&amp;quot;:0,&amp;quot;n&amp;quot;:&amp;quot;fsp&amp;quot;,&amp;quot;v&amp;quot;:&amp;quot;ss_presetShapeStyle1_textStyle&amp;quot;,&amp;quot;e&amp;quot;:16}]}&quot;&gt;&lt;span style=&quot;color:#333333;&quot;&gt;[Caso contrário]&lt;/span&gt;&lt;/span&gt;" link="&lt;span data-lucid-type=&quot;application/vnd.lucid.text&quot; data-lucid-content=&quot;{&amp;quot;t&amp;quot;:&amp;quot;[Caso contrário]&amp;quot;,&amp;quot;m&amp;quot;:[{&amp;quot;s&amp;quot;:0,&amp;quot;n&amp;quot;:&amp;quot;a&amp;quot;,&amp;quot;v&amp;quot;:&amp;quot;center&amp;quot;},{&amp;quot;s&amp;quot;:0,&amp;quot;n&amp;quot;:&amp;quot;c&amp;quot;,&amp;quot;v&amp;quot;:&amp;quot;333333ff&amp;quot;,&amp;quot;e&amp;quot;:16},{&amp;quot;s&amp;quot;:0,&amp;quot;n&amp;quot;:&amp;quot;fsp&amp;quot;,&amp;quot;v&amp;quot;:&amp;quot;ss_presetShapeStyle1_textStyle&amp;quot;,&amp;quot;e&amp;quot;:16}]}&quot;&gt;&lt;span style=&quot;color:#333333;&quot;&gt;[Caso contrário]&lt;/span&gt;&lt;/span&gt;" id="g295rd1gM76-QlpaN-fI-49">
          <mxCell style="text;whiteSpace=wrap;html=1;" vertex="1" parent="1">
            <mxGeometry x="1192.999534883721" y="-221.50401208212213" width="117" height="36" as="geometry" />
          </mxCell>
        </UserObject>
        <mxCell id="g295rd1gM76-QlpaN-fI-51" value="" style="html=1;jettySize=18;whiteSpace=wrap;fontSize=13;strokeColor=#333333;strokeOpacity=100;dashed=1;fixDash=1;strokeWidth=0.8;rounded=0;startArrow=none;endArrow=none;exitX=0.5;exitY=1.005;exitPerimeter=0;entryX=0.5;entryY=-0.005;entryPerimeter=0;lucidId=xv4Ab7Zhqv3U;" edge="1" parent="1">
          <mxGeometry width="100" height="100" relative="1" as="geometry">
            <Array as="points" />
            <mxPoint x="393" y="-450.625" as="sourcePoint" />
            <mxPoint x="393" y="-424.2450000000001" as="targetPoint" />
          </mxGeometry>
        </mxCell>
        <mxCell id="g295rd1gM76-QlpaN-fI-52" value="" style="html=1;jettySize=18;whiteSpace=wrap;fontSize=13;strokeColor=#333333;strokeOpacity=100;dashed=1;fixDash=1;strokeWidth=0.8;rounded=0;startArrow=none;endArrow=block;endFill=1;exitX=0.04;exitY=0.96;exitPerimeter=0;lucidId=xv4AtTEIP7Dh;entryX=0.956;entryY=0.972;entryDx=0;entryDy=0;entryPerimeter=0;" edge="1" parent="1" source="g295rd1gM76-QlpaN-fI-26">
          <mxGeometry width="100" height="100" relative="1" as="geometry">
            <Array as="points" />
            <mxPoint x="406.6800000000003" y="-83.27199999999993" as="targetPoint" />
            <mxPoint x="1884" y="-93" as="sourcePoint" />
          </mxGeometry>
        </mxCell>
        <mxCell id="g295rd1gM76-QlpaN-fI-53" value="Confirma que os dados foram salvos" style="text;html=1;resizable=0;labelBackgroundColor=default;align=center;verticalAlign=middle;fontStyle=1;fontColor=#333333;fontSize=10.8;" vertex="1" parent="g295rd1gM76-QlpaN-fI-52">
          <mxGeometry relative="1" as="geometry">
            <mxPoint x="138" y="-2" as="offset" />
          </mxGeometry>
        </mxCell>
        <mxCell id="g295rd1gM76-QlpaN-fI-54" value="Actor" style="shape=umlActor;verticalLabelPosition=bottom;verticalAlign=top;html=1;" vertex="1" parent="1">
          <mxGeometry x="378" y="-530" width="30" height="60" as="geometry" />
        </mxCell>
        <mxCell id="g295rd1gM76-QlpaN-fI-55" value="" style="html=1;overflow=block;blockSpacing=1;whiteSpace=wrap;fontSize=13;spacing=0;rounded=1;absoluteArcSize=1;arcSize=12;strokeWidth=NaN;lucidId=xv4AL6~pUNW9;" vertex="1" parent="1">
          <mxGeometry x="378" y="-422.5" width="30" height="349" as="geometry" />
        </mxCell>
        <mxCell id="g295rd1gM76-QlpaN-fI-61" value="" style="html=1;jettySize=18;whiteSpace=wrap;fontSize=13;strokeColor=#333333;strokeOpacity=100;strokeWidth=0.8;rounded=0;startArrow=none;endArrow=block;endFill=1;lucidId=hF4AZ1fIjam3;entryX=0.933;entryY=0.439;entryDx=0;entryDy=0;entryPerimeter=0;" edge="1" parent="1" target="g295rd1gM76-QlpaN-fI-55">
          <mxGeometry width="100" height="100" relative="1" as="geometry">
            <Array as="points">
              <mxPoint x="522" y="-265" />
            </Array>
            <mxPoint x="1394" y="-256" as="sourcePoint" />
            <mxPoint x="407.5500000000002" y="-254.6310000000003" as="targetPoint" />
          </mxGeometry>
        </mxCell>
        <mxCell id="g295rd1gM76-QlpaN-fI-60" value="" style="html=1;overflow=block;blockSpacing=1;whiteSpace=wrap;fontSize=13;spacing=0;rounded=1;absoluteArcSize=1;arcSize=12;strokeWidth=NaN;lucidId=xv4AL6~pUNW9;" vertex="1" parent="1">
          <mxGeometry x="564.5" y="-422.5" width="30" height="89.5" as="geometry" />
        </mxCell>
        <mxCell id="g295rd1gM76-QlpaN-fI-64" value="" style="html=1;jettySize=18;whiteSpace=wrap;fontSize=13;strokeColor=#333333;strokeOpacity=100;dashed=1;fixDash=1;strokeWidth=0.8;rounded=0;startArrow=none;endArrow=none;exitX=0.5;exitY=1.005;exitPerimeter=0;entryX=0.5;entryY=-0.005;entryPerimeter=0;lucidId=xv4A3fMg__mF;" edge="1" parent="1" source="g295rd1gM76-QlpaN-fI-13" target="g295rd1gM76-QlpaN-fI-63">
          <mxGeometry width="100" height="100" relative="1" as="geometry">
            <Array as="points" />
            <mxPoint x="837" y="-451" as="sourcePoint" />
            <mxPoint x="837" y="-61.374999999999545" as="targetPoint" />
          </mxGeometry>
        </mxCell>
        <mxCell id="g295rd1gM76-QlpaN-fI-63" value="" style="html=1;overflow=block;blockSpacing=1;whiteSpace=wrap;fontSize=13;spacing=0;rounded=1;absoluteArcSize=1;arcSize=12;strokeWidth=NaN;lucidId=xv4AL6~pUNW9;" vertex="1" parent="1">
          <mxGeometry x="822" y="-383" width="30" height="89.5" as="geometry" />
        </mxCell>
        <mxCell id="g295rd1gM76-QlpaN-fI-65" value="&lt;font style=&quot;font-size: 10px;&quot;&gt;tbi_fornecedores&lt;/font&gt;" style="shape=umlBoundary;whiteSpace=wrap;html=1;" vertex="1" parent="1">
          <mxGeometry x="1840" y="-531" width="100" height="80" as="geometry" />
        </mxCell>
        <mxCell id="g295rd1gM76-QlpaN-fI-67" value="" style="html=1;jettySize=18;whiteSpace=wrap;fontSize=13;strokeColor=#333333;strokeOpacity=100;dashed=1;fixDash=1;strokeWidth=0.8;rounded=0;startArrow=none;endArrow=none;exitX=0.5;exitY=1.005;exitPerimeter=0;entryX=0.5;entryY=-0.005;entryPerimeter=0;lucidId=xv4A1PRK3oP_;" edge="1" parent="1" source="g295rd1gM76-QlpaN-fI-15" target="g295rd1gM76-QlpaN-fI-23">
          <mxGeometry width="100" height="100" relative="1" as="geometry">
            <Array as="points" />
            <mxPoint x="1139" y="-451" as="sourcePoint" />
            <mxPoint x="1138.5" y="-61.374999999999545" as="targetPoint" />
          </mxGeometry>
        </mxCell>
        <mxCell id="g295rd1gM76-QlpaN-fI-23" value="" style="html=1;overflow=block;blockSpacing=1;whiteSpace=wrap;fontSize=13;spacing=0;rounded=1;absoluteArcSize=1;arcSize=12;strokeWidth=NaN;lucidId=xv4AL6~pUNW9;" vertex="1" parent="1">
          <mxGeometry x="1123.5" y="-330" width="30" height="55" as="geometry" />
        </mxCell>
      </root>
    </mxGraphModel>
  </diagram>
</mxfile>
